<?xml version="1.0" encoding="UTF-8"?>
<!DOCTYPE svg PUBLIC "-//W3C//DTD SVG 1.0//EN" "http://www.w3.org/TR/2001/REC-SVG-20010904/DTD/svg10.dtd">
<!-- Creator: CorelDRAW -->
<svg xmlns="http://www.w3.org/2000/svg" xml:space="preserve" width="16.091mm" height="16.163mm" version="1.0" style="shape-rendering:geometricPrecision; text-rendering:geometricPrecision; image-rendering:optimizeQuality; fill-rule:evenodd; clip-rule:evenodd"
viewBox="0 0 1609.1 1616.3"
 xmlns:xlink="http://www.w3.org/1999/xlink"
 xmlns:xodm="http://www.corel.com/coreldraw/odm/2003">
 <defs>
  <style type="text/css">
   <![CDATA[
    .fil1 {fill:none;fill-rule:nonzero}
    .fil3 {fill:black}
    .fil0 {fill:black;fill-rule:nonzero}
    .fil2 {fill:url(#id0);fill-rule:nonzero}
   ]]>
  </style>
  <linearGradient id="id0" gradientUnits="userSpaceOnUse" x1="772.78" y1="213.7" x2="783.67" y2="1357.03">
   <stop offset="0" style="stop-opacity:1; stop-color:#57D163"/>
   <stop offset="1" style="stop-opacity:1; stop-color:#23B33A"/>
  </linearGradient>
 </defs>
 <g id="Layer_x0020_1">
  <metadata id="CorelCorpID_0Corel-Layer"/>
  <g id="_1740619491920">
   <path class="fil0" d="M-8.25 1620.95l113.67 -415.02c-69.95,-121.28 -106.94,-259.29 -106.94,-399.44 0,-0.29 0,-0.68 0,-0.97 0.19,-441.61 359.56,-800.88 801.18,-800.88 214.31,0.11 415.45,83.51 566.74,234.9 151.28,151.38 234.51,352.61 234.43,566.62 -0.19,441.57 -359.62,800.91 -801.18,800.91l-0.35 0.01c-134.07,-0.06 -265.82,-33.69 -382.84,-97.5l-424.71 111.37z"/>
   <path class="fil1" d="M796.56 139.94c-367.32,0 -666.03,298.61 -666.16,665.64 0,0.23 0,0.71 0,0.96 0,124.99 35.34,247.48 101.82,353.27l15.84 25.17 -67.28 245.64 252.03 -66.08 24.33 14.41c102.22,60.67 219.42,92.76 338.93,92.82l0.23 0.05c367.04,0 665.75,-298.64 665.89,-665.69 0,-0.65 0,-1.45 0,-2.1 0,-175.97 -70.18,-344.76 -194.87,-468.89 -124.13,-124.94 -293.08,-195.2 -469.2,-195.2 -0.49,0 -1.05,0 -1.54,0l-0.02 0z"/>
   <path class="fil2" d="M796.56 139.94c-367.32,0 -666.03,298.61 -666.16,665.64 0,0.23 0,0.71 0,0.96 0,124.99 35.34,247.48 101.82,353.27l15.84 25.19 -67.28 245.63 252.03 -66.09 24.33 14.42c102.22,60.66 219.42,92.74 338.93,92.8l0.23 0.04c367.04,0 665.75,-298.64 665.89,-665.69 0,-0.64 0,-1.45 0,-2.09 0,-175.98 -70.18,-344.76 -194.87,-468.89 -124.12,-124.93 -293.07,-195.19 -469.19,-195.19 -0.49,0 -1.05,0 -1.54,0l-0.03 0z"/>
   <path class="fil3" d="M596.07 470.71c-15,-33.34 -30.79,-34.01 -45.05,-34.59l-38.37 -0.47c-13.35,0 -35.04,5.01 -53.38,25.05 -18.34,20.03 -70.07,68.45 -70.07,166.95 0,98.49 71.74,193.65 81.74,207.02 9.99,13.38 138.48,221.93 341.96,302.17 169.09,66.68 203.5,53.42 240.22,50.09 36.72,-3.33 118.44,-48.42 135.11,-95.17 16.67,-46.75 16.68,-86.8 11.68,-95.17 -4.99,-8.38 -18.34,-13.35 -38.38,-23.37 -20.04,-10.02 -118.44,-58.44 -136.79,-65.13 -18.34,-6.68 -31.68,-10 -45.05,10.03 -13.36,20.04 -51.67,65.11 -63.36,78.47 -11.68,13.36 -23.34,15.04 -43.38,5.03 -20.03,-10.01 -84.5,-31.16 -160.98,-99.35 -59.51,-53.06 -99.68,-118.59 -111.37,-138.62 -11.7,-20.02 -1.25,-30.87 8.8,-40.84 8.98,-8.97 20.01,-23.38 30.04,-35.07 10.03,-11.68 13.33,-20.03 19.99,-33.37 6.67,-13.34 3.34,-25.05 -1.66,-35.06 -5.01,-10.01 -43.91,-109.01 -61.7,-148.6z"/>
  </g>
 </g>
</svg>