<?xml version="1.0" encoding="UTF-8"?>
<!DOCTYPE svg PUBLIC "-//W3C//DTD SVG 1.1//EN" "http://www.w3.org/Graphics/SVG/1.1/DTD/svg11.dtd">
<!-- Creator: CorelDRAW 2019 (64-Bit) -->
<svg xmlns="http://www.w3.org/2000/svg" xml:space="preserve" width="236.017mm" height="254mm" version="1.1" style="shape-rendering:geometricPrecision; text-rendering:geometricPrecision; image-rendering:optimizeQuality; fill-rule:evenodd; clip-rule:evenodd"
viewBox="0 0 23601.68 25400"
 xmlns:xlink="http://www.w3.org/1999/xlink"
 zoomAndPan="magnify">
 <defs>
  <style type="text/css">
   <![CDATA[
    .fil0 {fill:#FFD60A}
   ]]>
  </style>
 </defs>
 <g id="Layer_x0020_1">
  <metadata id="CorelCorpID_0Corel-Layer"/>
  <path class="fil0" d="M8158.79 845.28c-37.78,1.63 -123.61,39.86 -165.07,56.4l-113.07 54c-3.48,-2.32 14.15,-26 -32.54,-7.13 -28.53,11.55 -10.83,4.61 -24.98,27.14l1.45 2.31c-31.63,-29.25 -109.45,39.37 -162.67,53.7 -13.52,3.64 -14.29,-2.71 -35.59,8.22 -30.02,15.43 -16.32,13.23 -26.17,25.12l-227.73 106.95c-93.62,43.48 -154.14,69.5 -227.11,109.89 -93.91,51.97 -395.33,182.63 -429.09,213.8l-21.24 2.59c-52.93,0.74 0.99,-6.43 -21.27,19.54 -83.07,51.31 -189.81,106.28 -273.33,154.98 -24.65,14.39 -45.8,25.22 -71.72,40.32l-177.91 102.47c-20.5,12.21 3.1,1.03 -23.12,15.63 -40.72,9 -184.74,95.64 -211.44,130.59 -35.07,27.54 -60.33,34.5 -104.08,68.59 -34.45,26.87 -63.44,41.34 -101.65,66.38 -33.91,22.21 -166.18,118.71 -203.32,128.18 -2.88,1.68 -7.24,0.81 -8.62,5.03 -1.35,4.07 -6.45,3.76 -8.26,4.94l-14.52 9.86c-13.82,9.44 -15.23,11.11 -26.04,18.21 -43.18,28.38 -34.59,12.54 -54.89,46.9 -31.03,1.97 -16.79,-1 -31.58,13.52l-93.91 73.53c-21.64,24.59 -122.33,94.05 -160.74,121.9 -211.18,153.07 -433.17,338.57 -633.31,502.4l-444.54 387.5c-52.97,47.91 -84.82,78.7 -125.52,126.2l-366.83 368.03 -83.9 92.32c-440.48,494.17 -670.08,742.43 -1068.57,1301.54 -35.94,50.42 -66.42,91.9 -99.93,136.58 -139.58,186.16 -393.59,620.71 -463.79,712.87 -32.21,4.2 -28.68,9.9 -19.28,26.87 -15.79,40.95 -13.19,22.63 -30.26,52.27 -78.56,136.3 -90.79,125.14 -190.72,315.42 -47.49,90.45 -172.07,290.94 -194.05,377.17 -32.79,33.99 -54.74,87.98 -68.7,127.77 -17.5,27.99 9.05,27.9 -29.4,79.47l-85.2 150.59c-19.49,49.35 -0.86,83.2 -34.96,83.84l-20.05 34.81c-23.83,47.55 -19.15,68.21 -33.07,96.51 -15.38,31.22 -12.73,5.92 -27.52,42.09 -15.8,38.64 0.68,21.12 -8.7,42.06 -10.7,23.88 -26.57,3.42 -40.99,81.81 -8.11,44.11 -9.46,15 -29.33,53.73 -6.79,13.24 -4.53,6.9 -9.29,27.88l-10.61 26.52c-13.92,14.35 -5.12,-5.82 -10.07,28.38l-11.73 27.03c-14.49,22.21 -28.35,55.52 -35.29,82.73l-48.86 131.88c-4.61,13.18 -3.53,10.9 -14.58,30.08 -39.28,68.2 -86.6,230.46 -111.48,307.7 -12.51,38.84 -18.11,27.65 -34.57,72.98l-160.56 506.88c-33.02,81.35 -21.97,79.39 -39,125.9l-98.63 329.63c-10.29,56.07 6.15,25.22 -15.73,83.04 -9.06,23.91 -13.7,44.17 -21.82,75.21l-100.31 427.15c-40.07,134.46 -51.04,247.2 -76.26,373.08l-20.78 106.16 -7.01 29.68 -90.52 599.91c-87.28,606.85 -97.95,1250.18 -100.34,1867.3 -0.28,73.88 11.83,104.46 11.51,179.45 -0.98,220.82 38.56,693.87 63.32,913.4l69.76 527.37c3.17,36.36 2.4,51.21 12.99,87.03l65.68 359.39c10.59,102.43 59.37,282.72 78.92,407.98l53.77 214.4c0.41,1.66 5.91,25.77 5.92,25.78l11.67 58.89c0.9,3.1 4.02,12.27 5.02,15.61l44.57 166.17c-29.84,-13.22 0.91,20.12 15.08,27.57l2.44 8.91 -14.29 21.27 22.36 14.88c-0.67,37.26 -0.44,4.34 2.6,25.94l128.56 479.89c26.73,40.85 5.42,-4.45 22.81,46.63 6.87,20.16 10.93,40.24 16.77,62.3 27.44,34.42 102.77,298.96 122.24,350.56 0.95,2.52 2.23,5.41 3.22,7.86 0.98,2.38 2.35,5.27 3.37,7.61 1,2.31 2.45,5.18 3.47,7.46l146.67 381.5c-38.92,-2.02 2.83,21.91 3.06,22.07l120.77 293.53c0.99,2.49 2.29,5.42 3.37,7.9 1.08,2.46 2.58,5.27 3.72,7.74l80.24 176.71c19.65,35.53 3.65,0.28 22.92,53.31 2.27,6.22 14.36,32.22 18.23,39.83 20.27,39.87 3.99,-3.31 19.08,41.37 42.96,127.23 91.22,167.09 101.8,205.14 25.98,93.45 6.91,41.88 56.54,140.53 21.52,42.78 50.42,88.41 64.36,139.14 15.07,17.66 30.98,41.98 44.02,67.62 27.59,61.51 40.97,105.05 81.22,143.94 65.65,63.42 -26.69,3.27 70.89,125.24 18.18,22.73 -1.46,6.27 18,52.94l61.1 103.86c9.29,22.34 1.66,7.81 12.46,29.26 4.56,9.02 9.2,18.68 10.2,16.72 0.86,-1.69 3.69,5.3 5.42,8.01l438.64 700.58c111.78,173.77 82.96,119.65 169.75,235.33 235.04,313.26 391.68,525.82 657.83,848.91 143.91,174.7 804.59,925.69 919.18,983.73 19.79,37.52 20.68,32.16 49.76,60.67 18.43,18.08 24.68,26.89 48.09,47.79 36.94,19.07 45.23,42.44 79.71,67.25l91.01 87.94c44.79,27.67 105.14,108.74 159.54,133.08 16.25,30.61 10.13,23.31 42.55,51.55l32.31 21.54 68.8 61.05 9.73 8 69.84 59.69 8.88 6.13 59.62 50.42 8.22 3.16 45.35 45.18 179.37 136.9c19.49,26.67 -12.51,-2.76 23.93,26.96 20.42,16.66 4.81,2.78 24.16,13.55l8.04 5.26c15.13,19.78 -7.74,0.77 23.99,25.94 19.57,15.54 6.6,3.61 21.43,11.33l45.33 33.27 55.5 45.91 48.98 36.61c39.23,18.17 245.49,172.82 274.71,198.18 30.05,33.56 76.55,61.55 117.14,76.39l-3.34 1.42c28.06,35.83 82.2,68.55 123.8,81.05 42.32,47.57 619.65,397.05 687.57,439.7 62.35,39.16 121.01,70.81 185.65,106.32 488.82,268.47 783.19,412.89 1327.22,650.21 345.52,150.71 690.6,266.39 1044.82,384.3l329.67 101.51c32.34,10.34 69.81,20.26 106.16,30.36l263.85 71.45c14.95,3.21 40.68,8.58 55.19,12.08 360.09,86.93 664.69,160.59 1036.99,219.29 85.47,13.46 155.22,26.23 242.53,37.99 37.66,5.08 94.47,14.69 125.68,18.71l359.29 45.98c25.23,3.57 22.09,-2.28 53.75,-0.03 61.87,4.41 8.4,7.95 57.12,12.84 21.98,2.22 23.03,-4.56 54.98,-1.78 89.02,7.75 -44.8,14.43 114.6,9.99 70.65,-1.96 32.03,16.24 102.33,12.55 114.81,-6.04 64.14,10.68 120.71,14.2 26.31,1.66 79.44,-10.84 122.37,-3.36 52.61,9.14 0.28,12.04 56.01,14.14l187.21 -5.43 28 22.22 928.35 -7.76c60.32,-16.84 74.57,-15.87 141.66,-14.16 88.37,2.26 54.14,11.43 128.1,-6.46 50.18,-12.14 107.25,6.05 146.84,-2.27 127.27,-26.77 65.28,-4.96 131.55,-10.13l125.81 -10.33c61.19,-1.27 5.26,-5.14 55.15,-12.14 33.69,-4.75 42.53,2.6 63.72,0.42 37.1,-3.82 4.9,-6.77 58.08,-12.58l465.19 -54.11c80.83,-7.19 199.09,-28.3 277.43,-41.59 89.81,-15.23 176.35,-32.98 267.52,-46.35 84.14,-12.35 180.19,-35.03 262.25,-51.5l759.48 -183.46c362.92,-94.8 626.82,-188.13 969.21,-303.82 257.9,-87.13 459.25,-185.26 680.22,-266.33l647.51 -294.45c296.21,-150.81 566.07,-300.22 825.95,-445.52 111.71,-62.46 678.48,-415.45 761.69,-490.45l104.43 -62.94c1.45,-1.31 4.93,-2.77 5.97,-6.79 1.05,-4.1 3.88,-4.78 5.86,-7.16l-4.25 -2.09c24.79,-8.78 27.07,-6.29 52.11,-23.89l31.7 -30.81 107.96 -72.23 225.94 -173.69 45.88 -32.68 55.42 -49.43c47.51,-31.14 122.85,-111.57 166.23,-124.59l47.12 -49.07 10.86 1.95 45.9 -45.34 13.01 -8.08c33.53,-16.52 30.26,-16.06 54.72,-45.28l9.3 -5.63 68.61 -62.32 12.72 -4.4 55.89 -50.8 42.91 -33.41c33.29,-28.07 26.43,-20.17 42.84,-51.32 48.15,-21.95 131.45,-113.78 172.16,-141.18l55.81 -57.96c35.21,-23.29 41.85,-47.07 79.73,-66.52 27.69,-24.56 36.82,-36.8 59.32,-58.89 27.02,-26.56 30.83,-25.15 48.35,-58.27 82.98,-34.15 613.5,-630.3 784.92,-818.3 17.14,-18.79 18.86,-26.61 33.9,-44.58 25.47,-30.46 38.15,-41.99 68.07,-78.38 165.82,-201.7 390.15,-468.85 542.02,-684.54l194.32 -267.17c27.22,-43.9 37.5,-34.31 67.34,-77.58 78.19,-113.4 245.22,-378.58 258.33,-501.35 5.81,-54.4 9.6,-31.74 29.14,-77.39 28.89,-67.46 22.56,-132.1 26.62,-163.33l14.46 -78.85c14.07,-12.37 4.59,0.28 8.87,-26.36 0.89,-77.82 5.82,-179.9 0.08,-255.53 -14.09,-185.62 -82.79,-391.77 -168.26,-556.59 -7.84,-39.93 9.55,-11.56 -19.71,-39.9 -62.5,-101.74 -143.6,-227.17 -217.4,-294.78 -22.55,-36.95 1.55,-22.32 -43.33,-43.22 -30.02,-74.96 -296.67,-238.49 -375.93,-277.3 -81.37,-39.81 -139.28,-65.53 -229.01,-95.72 -101.67,-34.21 -157.92,-34.16 -263,-58.3l-78.32 -14.49c-68.13,-0.58 -230.56,-16 -278.91,7.65 -118.77,27.54 -201.27,31.52 -314.15,72.36 -562.17,203.34 -678.97,470.65 -977.89,888.15 -117.57,164.21 -350.45,467.92 -494.27,630.74l-88.54 102.19c-124.26,153.84 -402.38,443.41 -549.45,563.27l-182.52 189.45c-65.12,40.11 -11.87,-17.35 -96.89,84.33 -41.92,50.12 -17.4,-24.91 -88.83,79.7 -42.64,62.44 -25.28,-9.56 -85.35,71.04 -16.1,21.59 -7.28,13.25 -24.14,22.19 -62.22,33.02 14.39,-18.53 -23.79,10.58 -30.95,23.6 -11.22,24.91 -37.29,41.99 -138.81,91 0.04,25.36 -99.53,62.58l-48.7 38.17c-33.92,33.73 -2.48,21.02 -42.28,55.23l-183.93 136.26c-19.69,14.64 0.26,-0.91 -24.88,11.88 -12.68,8.87 -12.11,6.08 -28.6,24.14l-17.64 7.33 -25.12 25.21c-2.07,1.93 -4.26,5.28 -5.37,6.57l-82.9 49.1 -33.52 32.53c-79.81,81.78 -20.82,23.48 -94.72,72.42l-46.41 31.12c-1.07,0.77 -3.78,2.63 -4.89,3.46 -1.2,0.92 -3.87,2.95 -5.11,3.96l-220.8 149.23c-2.24,1.24 -5.09,2.86 -7.29,4.14l-239.45 152.42c-3.04,1.58 -11.98,5.85 -14.97,7.48l-14.37 8.16c-39.05,23.33 -75.85,58.01 -125.96,70.07l-128.16 74.8c-1.4,-2.35 -4.81,5 -7.23,7.47l-497.03 258.89c-151.82,74.95 -357.75,168.52 -522.15,233.93 -712.24,283.38 -892.01,321.55 -1588.78,502.46 -232.64,60.41 -1207.22,214.13 -1489.66,214.43 -113.25,0.12 -267.95,10.13 -372.17,19.09 -149.41,12.82 -570.18,-4.98 -742.44,-9.78 -236.36,-6.58 -490.06,-48.04 -707.78,-65.24l-324.1 -44.29c-352.8,-63.55 -602.63,-115.03 -944.99,-199.34 -222.54,-54.82 -674.36,-197.48 -868.58,-269.92 -519.65,-193.77 -824.22,-342.83 -1308.71,-590.17 -71.65,-36.58 -153.7,-82.44 -232.48,-131.06 -20.46,-42.39 8.13,-12.46 -40.5,-36.5 -20.68,-10.23 -27.23,-13.9 -53.52,-20.81l-138.16 -80.35c-0.87,-0.59 -12.14,-9.75 -19.05,-14.61l-135.73 -87.38c-149.28,-82.72 -175.14,-117.9 -280.76,-188.98l-13.83 -9.1c-1.06,-0.6 -3.95,-2.23 -5.06,-2.82l-34.89 -16.67c-1.57,-1.05 -4.38,-2.95 -5.93,-4.14l-41.4 -47.6c1.69,-22.32 4.59,-6.68 -17.84,-12.85l-14.52 -4.18c-1.74,-1.74 -14.03,-15.28 -14.22,-15.51 -6.91,-7.18 -6.4,11.19 -11.75,-11.62 -0.9,-3.86 -4.24,-4.08 -6.37,-6.13 -43.13,9.11 -29.29,-9.04 -55.62,-31.97 -18.15,-23.32 -11.08,-12.41 -27.22,-22.93 -50.6,16.79 -4.92,3.73 -53.88,-30.27 -12.28,-8.52 0.89,3.92 -15.35,-11.5l-125.32 -97.48c-53.06,-39.32 -71.57,-52.48 -88.09,-88.06 -2.69,-1.44 -6.4,-3.11 -8.17,-4.17l-41.53 -32.93c-98.76,-37.63 -5.33,6.69 -70.11,-47.94 -50.78,-42.85 2.11,25.24 -51.47,-40.28 -44.81,-54.8 -23.94,-6.89 -56.29,-35.08 -33.56,-29.26 5.7,-27.9 -48.24,-54.55 -34.02,-16.78 9.5,27.09 -50.54,-47.63 -37.72,-46.98 -34.57,-22.88 -57.39,-35.49 -32.2,-17.78 -17.64,-26.18 -48.31,-60.91 -26.02,-29.45 -51.6,-33.46 -61.87,-39.75 -1.96,-1.19 -4.97,-2.7 -6.79,-4.04 -16.85,-12.48 -30.19,-42.49 -49.58,-62.85 -20.08,-21.1 -35.53,-34.92 -56.39,-56 -40.09,-40.52 -77.53,-65.84 -118.21,-106.87 -133.67,-134.8 -200.84,-183.45 -337.41,-337.07l-714.3 -860.97c-516.92,-685.43 -874.92,-1392.17 -1196.23,-2177.65l-56.86 -145.2c16.39,-22.39 12.22,-15.42 -10.24,-27.23l-119.52 -353.13c-3.52,-10.19 -11.61,-29.63 -15.79,-45.23l-93.94 -328.04c-17.98,-74.38 -188.89,-706.5 -188.03,-808.69l-14.06 -23.96 1.58 -30.18c-4.67,-28.29 4.98,-14.11 -9.63,-29.42l-43.53 -269.82c-21.11,-85.51 -42.31,-315.84 -56.06,-425.26 -18.52,-147.34 -56.18,-614.81 -55.59,-752.34 0.57,-134.95 0.07,-270.02 0.07,-405 0.01,-177.96 27.7,-899.24 62.47,-1058.51 3.25,-14.85 4.48,-30.33 5.74,-45.78l7.6 -24.28 10.53 -142.63c0.5,-3.71 12.55,-28.09 8.28,-69.47l14.98 -23.46c-0.81,-79.09 32.12,-156.89 33.81,-243.81l10.3 -25.71c2.82,-34.82 6.98,-44.44 9.79,-83.78 3.05,-42.78 6.38,-9 13.41,-65.51 14.51,-10.87 13.36,22.29 12.15,-26.39 -5.82,-60.11 -2,-24.38 14.74,-84.48 8.2,-29.42 15.23,-66.98 16.06,-97.09l12.62 -36.66 46.84 -220.38c0.28,-0.76 7.19,-16.5 9.5,-22.81 7.6,-20.8 10.25,-34.1 12.51,-49.13l129.79 -477.22c58.52,-175.24 180.62,-559.98 251.85,-701.08 35.52,-15.59 13.57,24.27 27.85,-29.96 11.78,-44.69 -2.67,-20.3 -8.24,-28.82 14.1,-30.63 26.88,-61.98 39.92,-95.01 167.37,-423.89 432.61,-921.16 665.49,-1303.62 174.84,-287.15 340.73,-521.28 534.7,-781.02l348.77 -425.45c26.64,-18.51 15.26,-12.9 25.47,-24.66l39.5 -56.38c9.92,-14.96 -6.66,3.55 12,-13.89 2.05,-1.91 9.17,-7.05 11.58,-9.04 28.32,-23.32 35.39,-25.39 48.48,-55.77 24.06,-55.85 29.38,-23.48 72.56,-71.83 43.91,-49.19 -4.02,-21.65 30.74,-58.1 12.39,-12.96 36.8,-22.15 58.77,-42.75 138.02,-129.4 38.77,-86.7 175.42,-206.77l84.13 -84.95c90.74,-98.11 87.95,-88.02 172.28,-142.59 48.53,-31.39 88.54,-102.93 99.9,-113.85 35.86,-34.44 24.43,-1.22 70.18,-41.81 29.34,-26.05 29.4,-47.93 48.26,-64.5 35.6,-31.33 26.99,9.31 67.14,-45.65 22.27,-30.49 -9.05,-14.7 50.85,-49.64l233.83 -195.23c1.73,-1.45 4.06,-3.81 5.82,-5.23l110.84 -90.56c1.71,-1.49 4.22,-3.69 5.96,-5.15l89.12 -68.35c17.89,-16.23 1.69,-2.91 24.06,-20.37l181.45 -133.57c1.89,-1.4 4.42,-3.51 6.32,-4.88 18.17,-13.16 44,-27.4 58.69,-37.69 27.83,-13.96 1.58,4.49 25.5,-12.87l19.66 -18.37c39.89,-47.88 289.04,-195.67 346.59,-234.87l206.14 -130.03c550.37,-331.5 1261.76,-673.41 1876.97,-877.31 1353.16,-448.47 2510.89,-601.14 4043.64,-487.86 133.16,9.83 285.48,27.73 413.8,46.47 1220.85,178.26 2057.59,456.43 3142.77,992.49 114,56.31 1047.11,574.83 1138.28,691.65 11.5,11.74 -0.8,4.9 19.65,18.23 22.12,14.42 1.15,0.63 25.69,13l25.55 16.68c13.79,16.24 1.5,8.08 20.46,22.13 24.7,18.32 15.98,8.45 29.23,14.67 6.93,8.51 1.74,6.75 15.69,18.28 26.27,21.71 11.43,8.1 31.58,20.37l140.4 100.74c2.74,1.91 11.06,6.95 13.81,8.84l295.13 246.44 52.56 56.58c13.37,2.07 36.08,5.04 46.3,11.51 44.52,28.14 6.22,9.97 29.99,37.22 31.26,35.82 10.43,8.86 41.54,27.03 68.88,40.24 -29.91,4.06 101.5,88.41 35.59,22.83 22.65,34.92 55.32,68.27 43.08,43.95 42.06,15.1 82.94,52.03 13.08,11.82 111.15,160.06 179.22,187.72 20.96,43.74 41.68,48.69 87.46,96.43l40.52 31.99c28.23,68.22 217.39,205.59 239.49,239.65 47.3,72.87 43.87,37.6 77.74,60.96 39.77,27.45 1.84,11.2 31.85,40.57l20.75 13.1c1.08,0.75 3.84,2.57 4.9,3.36l44.85 32.58c1.11,0.66 4,2.39 5.1,3.07 1.09,0.67 3.9,2.58 4.98,3.28l88.04 55.06c51.46,36.61 304.06,132.59 360.71,146.86l167.2 39.58c79.24,23.92 352.92,22.53 435.27,8.84l46.99 -11.68c50.99,-17 20.69,-20.68 64.2,-7.88 6.4,-3.03 28.39,-10.43 34.9,-13.45 39.26,-13.31 0.52,-4.62 41.4,-14.7l131.91 -41.88c109.57,-31.93 218.63,-98.51 307.85,-146.16l45.52 -28.62c12.56,-10.55 4.66,-5.22 14.26,-13.7 27.57,-24.32 -9.7,9.38 13.84,-11.13 0.98,-0.86 3.52,-3 4.51,-3.87l8.94 -8.86c45.38,-39.71 30.22,5.14 64.11,-47.42 59.2,-91.81 0.74,2.52 71.1,-51.52 81.37,-62.5 25.6,-66.3 92.23,-111.31l81.38 -103.32c100.95,-104.4 17.94,-43.57 76.14,-110.31 43.76,-50.18 10.96,-23.44 33.47,-81.8 3.17,-8.24 16.38,-34.91 21.57,-44.11 14.53,-25.8 12.3,-18.75 27.53,-37.46 49.14,-60.37 21.25,-74.26 45.48,-128.92 17.74,-40.01 23.39,-45.7 35.81,-93.43 23.77,-91.32 8.73,-88.22 27.5,-152.11 63.24,-215.4 -7.23,-575.87 -87.38,-777.13l-78.91 -169c-64.23,-115.2 -151.01,-239.86 -230.32,-318.26l-95.22 -103.53c-49.35,-63.07 -139.94,-139.39 -200.77,-200.15 -64.84,-64.75 -133.47,-144.7 -199.68,-201.64 -31.25,-36.94 -69.51,-79.13 -113.79,-109.8 -12.15,-6.33 -89.34,-72.69 -112.28,-95.15l-784.52 -663.83c-24.01,-24.73 -68.92,-63.23 -102.54,-83.77 -32.28,-7.76 -85.31,-55.97 -119.3,-79.87 -21.18,-14.89 -94.41,-66.81 -111.6,-84.62 -2.21,-2.42 -5.6,-9.3 -6.79,-7.11l-52.51 -42.63c-24.01,-16.34 -41.81,-26.82 -63.17,-36.06 -17.08,-29.92 -80.9,-64.59 -113.9,-84.09 -24.91,-7.35 -43.62,-23.29 -66.96,-39.14 -27.95,-18.98 -44.45,-29.69 -68.09,-44.78 -89.4,-57.13 -106.98,-78.46 -204,-132.67 -27.54,-15.38 -44.18,-29.11 -67.34,-45.23l-1304.88 -720.96c-50.49,-25.02 -97.71,-41.42 -153.24,-71.04l-425.83 -185.49c-2.92,-29.09 -79.41,-53.32 -113.08,-64.84 -32.91,-11.25 -8.16,22.93 -38.07,-24.5 -79.3,-6.08 -7.52,-3.61 -38.91,12.66l-38.2 -18.98c-2.37,-1.02 -5.47,-2.24 -7.91,-3.26l-155.71 -53.66c-8.28,-23.9 26.28,-11.55 -18.67,-29.62 -37.75,-15.17 -24.56,6.75 -26.83,8.5 -168.12,-73.98 -1001.43,-344.78 -1186.17,-383.87l-107.49 -24.72c-50.89,-15.11 -42.52,-25.82 -90.05,-19.94l-0.27 -21.34c-61.43,-7.09 -5.64,-2.64 -30.1,7.54l-683.8 -149.76c-3.82,-0.77 -14.75,-3 -18.58,-3.77l-649.2 -106.52c-38.57,-7.96 -24.6,0.59 -62.82,-7.15l-278.85 -33.67c-66.37,-16.92 -19.53,-3.15 -77.89,-4.98 -70.56,-2.2 0.72,-4.98 -68.33,-17.91l-516.96 -45.89 -1460.19 0c-33.5,19.48 -108.93,7.5 -157.24,13.04l-418.6 49.39c-45.94,4.22 -7.64,-10.6 -60.83,1.05 -100.08,21.94 -29.47,-4.53 -116.19,16.92 -47.66,11.78 -30.2,1 -60.55,1.91l-340.19 48.53c-23.92,4.34 -32.65,5.52 -52.18,8.56l-946.48 183.04c-36.07,9.97 18.83,-5.53 -17.73,5.12l-102.03 20.81c-1.61,0.24 -4.85,0.88 -6.41,1.16l-153.28 42.79c-45.26,14.29 -84.42,19.96 -123.7,30.93 -2.95,0.82 -5.85,1.72 -8.77,2.61l-873.61 264.13c-41.18,12.77 -22.39,9.51 -55.91,24.88 -21.51,9.87 -33.01,14.05 -57.67,21.37l-115.19 41.72c-46,17.84 -73.1,26.72 -114.83,44.47 -0.38,-0.32 6.68,-26.23 -27.06,-7.52 -33.13,18.39 -8.51,-1.25 -16.94,29.84zm-2296.19 15966.59c-39.49,26.35 -2.78,-22.81 -12.83,10.73 -3.89,12.99 -5.19,8.36 1.38,17.41 -18.88,42.8 -29.64,76.66 -40.51,118.99 -2.44,9.5 -6.59,24.36 -8.6,31.21l-7.78 26.11c-0.43,1.8 -1.25,5.2 -1.65,7.03 -64.07,295.28 -20.82,219.96 -42.11,466.89 -0.95,49.84 -2.5,17.3 11.63,28.59 4.3,64.83 1.73,66.5 16.56,126.55 9.14,37.01 7.77,67.07 21.88,112.24 27.74,88.8 19.07,12.74 46.63,134.04 14.09,62.06 11.14,11.36 34.77,78.47 25.48,72.38 70.84,155.26 118.49,216.31l54.27 74.22c11.12,30.64 13.99,45.58 43.96,66.44 31.27,29.05 25.88,8.42 51.83,46.53 28.69,42.14 -4.7,12.34 49.67,62.58l53.02 77.18 59.37 57.08c13.59,39.19 35.22,53.06 65.44,78.67l90.03 107.03c39.5,34.09 102.95,87.51 140.64,127 22.77,23.85 39.27,48.88 62.26,72.63 25.05,25.89 43.62,41.67 63.04,67.96 44.35,31.59 32.07,2.21 67.18,48.12l17.74 21.79c16.59,14.15 44.96,48.42 60.71,58.8 52.69,34.75 21.21,-16.13 60.09,30.03 121.61,144.37 46.53,7.8 110.1,103.28 47.9,71.96 11.42,1.52 82.58,74.33 28.91,29.59 27.15,13.26 52.48,37.81l41.05 38.03c54.22,35.08 22.06,25.96 56.56,53.49 13.02,13.92 17.53,16.44 35.07,27.37 21.4,21.02 12.3,10.45 36.19,27.19l91.95 68.53c1.06,0.77 3.9,2.39 4.94,3.15l490.92 341.93c48.96,29.76 87.51,57.28 135.71,89.56 221.29,148.24 628.43,371.82 864.34,485.37 884.17,425.57 1797.9,714.05 2784.49,827.98 136.86,15.81 271.87,23.01 410.01,39.88 240.41,29.38 1071.5,31.62 1304.65,1.14 134.86,-17.64 271.81,-23.17 408.4,-40.27 627.4,-78.62 1241.72,-206.83 1827.35,-424.31 635,-235.83 1384.71,-572.57 1963.56,-972.19 94.14,-64.98 87.94,-49.28 140.91,-83.05 71.5,-45.63 207.12,-161.27 267.41,-179.41l18.23 -21.99c1.38,-1.94 7.91,-14.72 11.55,-20.42 57.59,-20.26 -10.99,6.75 34.73,-28.38l70.01 -49c1.33,-1.19 3.83,-3.75 5.12,-5.05l65.13 -56.7c1.16,-1.31 2.94,-4.46 4.11,-5.67 15.92,-16.49 7.56,-6.35 19.98,-13.02 54.32,-29.17 2.41,-14.75 49.9,-42.09l28.64 -17.12c66.32,-65.59 -20.24,5.89 45.61,-33.35 37.23,-22.19 12.92,-24.22 40.8,-47.64l13.93 -8.33c68.42,-40.54 22.09,-9.17 54.41,-49.72 34.7,-43.52 37.86,8.05 76.68,-57.56 55.82,-94.38 45.86,-10.67 105.08,-85.13 27.13,-34.11 12.92,-43.13 44.48,-66.57 38.09,-28.31 4.16,16.06 56.13,-23.47 21.46,-16.32 87.08,-86.55 103.35,-106.77l64.96 -63.06c50.73,-49.39 31.09,-4.09 63.41,-61.65l174.26 -182.05c22.62,-23 41.37,-35.99 62.6,-66.06 15.6,-15.47 14.7,-12.05 26.58,-32.59 29.32,-24.43 20.74,-22.6 39.84,-50.43 20.03,-17.63 13.16,18.2 12.39,-27.78l31.35 -13.3 7.24 -37.27c30.02,-6.82 15.1,6.18 21.63,-33.61 21.12,-12.64 6.79,22.31 27.73,-36.84 13.32,-14.54 1.9,-2.44 8.43,-18.23 23.96,-58 41.29,-26.96 67.27,-118.74l19.65 -46.67c18.46,-27.07 22.52,-45.58 31.72,-87.02 23.66,-33.7 22.69,-46.68 27.58,-91.64 35.23,-54.92 7.06,-52.62 37.49,-145.41 8.92,-27.19 7.66,-25.87 11.21,-57.4 44.63,-396.95 -33.43,-725.47 -244.75,-1048.12 -114.51,-174.85 -161.48,-188.23 -248.86,-287.95l-67.18 -62.77 -80.61 -53.29 -35.04 -25.48c-32.51,-13.73 -62.61,-38.71 -103.14,-58.72 -36.42,-17.97 -67.54,-30.81 -98.25,-51.23 -48.1,-41.76 -217.2,-88.18 -272.15,-95.08 -220.92,-3.64 -329.14,-85.87 -734.23,14.4 -105.93,26.24 -201.32,63.88 -291.59,110.93 -50.3,26.21 -84.21,45.57 -130,72.6 -33.86,19.97 -86.11,61.8 -113.72,73.48 -16.24,10.59 -23.7,15.07 -35.19,25.14 -20.39,17.9 -19.36,18.85 -32.31,39.13l-32.94 26.75c-34.63,22.41 -40.64,25.44 -61.07,60.54l-95.08 99.45c-16.65,11.67 -21.76,14.97 -37.88,31.77 -28.29,29.5 -15.16,11.86 -31.35,47.91 -37.41,15.23 -161.56,159.61 -212.84,198.42 -25.01,14.45 -24.59,14.22 -42.33,30.06 -6.02,5.37 -11.21,10.24 -16.99,16.26 -15.39,16.02 -10.99,11.41 -21.87,26.1 -53.07,57.34 -138.69,119.55 -199.81,168.9 -32.43,26.2 -67.52,52.87 -101.54,78.39 -29.06,21.81 -69.03,58.78 -99.23,74.3l-81.18 60.61c-36.08,17.54 -75.95,47.22 -109.67,69.26l-110.28 77.95c-254.55,211.72 -1097.43,558.46 -1417.49,656.41 -1141.96,349.46 -2485.97,337.24 -3596.94,-78.55 -234.84,-87.9 -514.8,-193.01 -722.19,-312.55 -169.33,-97.6 -501.04,-267.16 -639.77,-388.54l-45.77 -32.3c-118.51,-68.13 -220.55,-170.5 -340.22,-257.54 -12.11,-16.68 -0.62,-7.37 -23.19,-28.33 -13.07,-12.12 -17.35,-13.91 -35.65,-24.51l-19.37 -17.14c-20.15,-23.2 -36.99,-38.88 -61.66,-56.63l-28.16 -24.93 -115.7 -103.7 -231.99 -230.01 -62.56 -70.46c-35.71,-31.11 -99.05,-104.78 -132.67,-145.78 -45.91,-55.98 -97.8,-97.56 -131.63,-143.17l-69.87 -64.25c-33.19,-11.29 -52.19,-36.88 -83.92,-59.44 -242.06,-172 -565.01,-269.24 -873.31,-275.96 -61.09,-1.32 -83.37,10.15 -135.6,13.33 -332.95,20.26 -431.88,120.78 -637.06,201.16 -24.42,12.22 -30.17,16.51 -53.34,31.61 -6.93,4.53 -23.66,14.6 -26.94,17.35 -25.27,21.17 -10.21,8.04 -23.88,27.46l-38.71 27.72c-22.69,9.92 -11.15,0.91 -26.86,12.65 -15.38,11.49 -8.27,7.14 -19.09,19.57l-21.77 22.05c-36.86,19.49 -37.92,15.29 -52.77,56.09 -126.11,69.45 -297.76,369.13 -359.83,525.97z"/>
 </g>
</svg>
