<?xml version="1.0" encoding="UTF-8"?>
<svg xmlns="http://www.w3.org/2000/svg" width="254mm" height="254mm" viewBox="0 0 25400 25400" version="1.1">
  <defs>
    <style type="text/css"><![CDATA[
      .fil0 { fill: #000000; fill-rule: nonzero; }
    ]]></style>
  </defs>
  <g id="Layer_1">
    <path class="fil0" d="M5801.73 12700.04c0,-605.8 73.63,-1194.5 212.59,-1757.63 100.35,-406.66 234.83,-799.87 400.06,-1176.51 1116.82,-2546.37 3643.13,-4334.02 6591.86,-4376.03 2948.8,41.86 5475.25,1829.76 6592.02,4376.03l-3175.81 1423.97c-573.24,-1334.96 -1883.07,-2278.95 -3418.23,-2319.99 -1533.37,42.81 -2841.46,986.15 -3414.03,2319.99 -198.8,463.36 -308.98,973.9 -308.98,1510.17 0,536.17 110.18,1046.71 309.11,1510.17 573.26,1334.99 1883.15,2278.85 3418.15,2319.89 1533.22,-42.82 2841.31,-986.15 3413.85,-2320l3175.94 1423.97c-1116.77,2546.37 -3643.22,4334.03 -6592.02,4376.07 -2948.73,-42.04 -5474.94,-1829.7 -6591.99,-4375.93 -158.16,-360.81 -288.25,-737 -387.09,-1125.64 -147.17,-578.41 -225.43,-1184.41 -225.43,-1808.53z"/>
  </g>
</svg>
