<?xml version="1.0" encoding="UTF-8"?>
<svg xmlns="http://www.w3.org/2000/svg" width="254mm" height="254mm" viewBox="0 0 25400 25400" version="1.1">
  <defs>
    <style type="text/css"><![CDATA[
      .fil0 { fill: #000000; fill-rule: nonzero; }
    ]]></style>
  </defs>
  <g id="Layer_1">
    <path class="fil0" d="M21636.07 16463.85l3208.4 1438.43c-1987.15,4419.96 -6428.66,7497.72 -11589.03,7497.72 -5178.36,0 -9632.8,-3099.32 -11609.57,-7544.05 -700.9,-1575.66 -1090.35,-3320.36 -1090.35,-5156 0,-1835.69 389.45,-3580.39 1090.21,-5156.03 1976.91,-4444.74 6431.35,-7543.92 11609.71,-7543.92 5160.37,0 9601.88,3077.63 11589.03,7497.57l-3208.4 1438.58c-1437.37,-3195.95 -4649.13,-5421.09 -8380.63,-5421.09 -3749.45,0 -6974.18,2246.64 -8401.47,5467.33 -503.58,1136.53 -783.38,2394.33 -783.38,3717.56 0,1323.19 279.8,2580.98 783.38,3717.53 1427.29,3220.69 4652.02,5467.33 8401.47,5467.33 3731.5,0 6943.13,-2225.1 8380.63,-5420.96z"/>
  </g>
</svg>
